<?xml version="1.0" encoding="UTF-8"?>
<svg xmlns="http://www.w3.org/2000/svg" xmlns:xlink="http://www.w3.org/1999/xlink" width="50px" height="50px" viewBox="0 0 50 50" version="1.1">
<defs>
<radialGradient id="radial0" gradientUnits="userSpaceOnUse" cx="0" cy="0" fx="0" fy="0" r="1" gradientTransform="matrix(-0.423714,49.152524,-49.152524,-0.423714,25.42375,0.847455)">
<stop offset="0" style="stop-color:rgb(33.72549%,98.039216%,17.647059%);stop-opacity:1;"/>
<stop offset="0.231667" style="stop-color:rgb(94.901961%,91.372549%,11.372549%);stop-opacity:1;"/>
<stop offset="0.561667" style="stop-color:rgb(77.254902%,54.901961%,60.392157%);stop-opacity:1;"/>
<stop offset="0.721667" style="stop-color:rgb(100%,61.960784%,4.705882%);stop-opacity:1;"/>
<stop offset="1" style="stop-color:rgb(33.72549%,9.803922%,33.333333%);stop-opacity:1;"/>
</radialGradient>
</defs>
<g id="surface1">
<path style=" stroke:none;fill-rule:nonzero;fill:rgb(61.960784%,42.352941%,90.588235%);fill-opacity:1;" d="M 25.039062 16.03125 C 25.039062 16.03125 28.15625 18.335938 24 16.03125 C 19.847656 13.726562 20.886719 14.878906 19.847656 17.183594 C 18.808594 19.488281 22.964844 17.761719 22.964844 17.761719 L 25.039062 19.488281 C 23.492188 21.636719 19.867188 20.582031 18.808594 19.90625 C 15.566406 22.898438 14.21875 24.671875 16.214844 28.707031 L 17.773438 28.707031 C 19.019531 28.707031 18.292969 26.019531 17.773438 24.675781 L 19.847656 24.675781 L 19.847656 22.371094 L 21.925781 22.371094 L 22.964844 25.824219 C 22.269531 25.441406 20.886719 24.90625 20.886719 25.824219 L 20.886719 28.128906 L 24.519531 28.128906 L 25.039062 21.792969 L 26.597656 20.640625 L 28.15625 17.761719 C 28.675781 18.476562 30.230469 19.824219 32.308594 19.488281 C 31.839844 17.4375 30.660156 16.84375 28.15625 16.03125 C 27.132812 13.578125 27.824219 12.882812 29.710938 12 L 33.867188 16.03125 L 35.421875 19.90625 L 36.980469 21.792969 L 37.5 29.859375 C 33.09375 35.71875 31.128906 37.351562 28.15625 38.5 C 27.464844 38.5 26.078125 37.808594 26.078125 35.042969 C 26.078125 35.042969 30.210938 34.796875 29.710938 32.738281 C 29.71875 31.226562 28.515625 31.660156 26.078125 32.738281 L 28.15625 29.859375 L 32.308594 31.011719 C 35.140625 29.824219 35.25 27.980469 35.421875 24.675781 L 33.347656 22.371094 L 32.308594 22.371094 L 33.347656 24.675781 L 33.347656 26.976562 L 28.15625 26.976562 C 28.15625 26.210938 28.464844 24.675781 29.710938 24.675781 C 30.957031 24.675781 30.230469 23.136719 29.710938 22.371094 L 26.078125 23.523438 L 26.078125 29.859375 L 24 30.433594 L 22.964844 33.890625 C 21.539062 34.324219 21.085938 33.507812 20.886719 30.433594 C 20.199219 31.199219 18.621094 32.382812 17.785156 31.03125 C 18.3125 31.90625 19.898438 34.550781 20.886719 36.195312 L 20.886719 38.5 L 14.65625 35.042969 L 14.65625 31.011719 C 10.421875 22.84375 13.226562 22.183594 16.214844 19.488281 C 16.214844 10.273438 24 11.425781 25.039062 16.03125 Z M 25.039062 16.03125 "/>
<path style=" stroke:none;fill-rule:evenodd;fill:url(#radial0);" d="M 25 50 C 38.808594 50 50 38.808594 50 25 C 50 11.191406 38.808594 0 25 0 C 11.191406 0 0 11.191406 0 25 C 0 38.808594 11.191406 50 25 50 Z M 25 48.304688 C 37.871094 48.304688 48.304688 37.871094 48.304688 25 C 48.304688 12.128906 37.871094 1.695312 25 1.695312 C 12.128906 1.695312 1.695312 12.128906 1.695312 25 C 1.695312 37.871094 12.128906 48.304688 25 48.304688 Z M 25 48.304688 "/>
</g>
</svg>
